<?xml version="1.0" encoding="UTF-8"?>
<!DOCTYPE svg PUBLIC "-//W3C//DTD SVG 1.1//EN" "http://www.w3.org/Graphics/SVG/1.1/DTD/svg11.dtd">
<!-- Creator: CorelDRAW -->
<svg xmlns="http://www.w3.org/2000/svg" xml:space="preserve" width="2.24707in" height="0.444047in" version="1.1" style="shape-rendering:geometricPrecision; text-rendering:geometricPrecision; image-rendering:optimizeQuality; fill-rule:evenodd; clip-rule:evenodd"
viewBox="0 0 2247.07 444.05"
 xmlns:xlink="http://www.w3.org/1999/xlink"
 xmlns:xodm="http://www.corel.com/coreldraw/odm/2003">
 <defs>
  <style type="text/css">
   <![CDATA[
    .fil1 {fill:#3400ED}
    .fil2 {fill:#04071C;fill-rule:nonzero}
    .fil0 {fill:#3400ED;fill-rule:nonzero}
   ]]>
  </style>
 </defs>
 <g id="Layer_x0020_1">
  <metadata id="CorelCorpID_0Corel-Layer"/>
  <g id="_2025553820144">
   <path class="fil0" d="M35.13 3.76l196.93 106.96 200.09 -107.97c15.15,-8.16 33.33,3.01 33.31,19.91l0.04 0 0 397.17c0,12.51 -10.14,22.65 -22.65,22.65l-173.01 0 0 -51.89c38.78,-12.9 70.11,-46.41 70.11,-100.58 0,-59.59 -48.31,-107.9 -107.9,-107.9 -59.59,0 -107.9,48.31 -107.9,107.9 0,54.82 32.08,88.49 71.5,101.03l0 51.44 -173 0c-12.51,0 -22.65,-10.14 -22.65,-22.65l0 -397.17c0,-18.16 20.25,-28.74 35.13,-18.91zm235.48 137.52c66.17,17.11 115.05,77.2 115.05,148.72 0,41.69 -16.62,79.5 -43.59,107.18l78.14 0 0 -336.61 -149.59 80.72zm-148.56 255.9c-26.97,-27.67 -43.59,-65.48 -43.59,-107.18 0,-71.58 48.96,-131.72 115.22,-148.76l-148.38 -80.59 0 336.54 76.75 0zm110.01 -180.28c40.37,0 73.1,32.73 73.1,73.1 0,96.15 -146.2,96.15 -146.2,0 0,-40.37 32.73,-73.1 73.1,-73.1z"/>
   <path class="fil1" d="M371.77 119.06c14.04,0 25.43,11.38 25.43,25.42 0,14.04 -11.39,25.43 -25.43,25.43 -14.04,0 -25.42,-11.38 -25.42,-25.43 0,-14.04 11.38,-25.42 25.42,-25.42z"/>
   <path class="fil2" d="M668.78 443.66c-20.72,0 -40.2,-3.48 -58.43,-10.43 -18.23,-6.95 -33.97,-16.85 -47.22,-29.71 -13.25,-12.85 -23.48,-27.87 -30.69,-45.06 -7.21,-17.18 -10.95,-35.87 -11.22,-56.07 0.26,-20.2 4,-38.89 11.22,-56.07 7.21,-17.19 17.51,-32.14 30.89,-44.86 13.38,-12.72 29.05,-22.69 47.02,-29.91 17.97,-7.22 37.45,-10.69 58.43,-10.43 21.78,-0.26 41.58,3.15 59.42,10.23 17.84,7.08 33.45,16.98 46.83,29.71 13.38,12.72 23.67,27.74 30.89,45.06 7.21,17.31 10.82,36.07 10.82,56.27 0.26,20.46 -3.28,39.28 -10.62,56.46 -7.35,17.19 -17.71,32.13 -31.09,44.86 -13.38,12.72 -28.99,22.63 -46.83,29.71 -17.84,7.08 -37.64,10.49 -59.42,10.23zm0 -42.5c14.43,-0.26 27.68,-2.75 39.74,-7.48 12.07,-4.72 22.49,-11.61 31.28,-20.66 8.79,-9.05 15.74,-19.54 20.85,-31.48 5.11,-11.94 7.67,-24.99 7.67,-39.15 -0.26,-14.43 -2.82,-27.61 -7.67,-39.55 -4.85,-11.93 -11.74,-22.36 -20.66,-31.28 -8.92,-8.92 -19.35,-15.74 -31.28,-20.46 -11.94,-4.72 -25.25,-7.21 -39.94,-7.48 -13.9,0.26 -26.89,2.82 -38.95,7.67 -12.07,4.85 -22.56,11.67 -31.48,20.46 -8.92,8.79 -15.87,19.15 -20.85,31.08 -4.98,11.94 -7.48,25.12 -7.48,39.55 0.26,14.17 2.82,27.28 7.67,39.35 4.85,12.07 11.74,22.49 20.66,31.28 8.92,8.79 19.35,15.61 31.28,20.46 11.93,4.85 24.98,7.41 39.15,7.67z"/>
   <polygon class="fil2" points="871.43,440.11 871.43,164.67 911.96,164.67 1032.76,366.93 1011.51,366.93 1130.74,164.67 1170.88,164.67 1171.27,440.11 1124.84,440.11 1124.44,237.86 1134.28,237.86 1032.37,408.63 1010.33,408.63 906.85,237.86 918.26,237.86 918.26,440.11 "/>
   <path class="fil2" d="M1292.07 280.36l138.11 -0.39 -0.39 40.13 -137.33 0.39 -0.39 -40.13zm3.54 118.44l157 -0.39 -0.39 41.71 -205.01 0 0.39 -275.44 199.5 0 -0.39 41.31 -150.7 0.39 -0.39 192.42z"/>
   <polygon class="fil2" points="1510.85,440.11 1510.46,164.67 1550.99,164.67 1725.3,379.12 1704.84,379.52 1704.84,164.67 1753.63,164.67 1753.63,440.11 1713.5,440.11 1539.19,225.66 1559.25,225.27 1559.25,440.11 "/>
   <polygon class="fil2" points="1886.24,440.11 1885.85,206.38 1794.17,205.99 1794.17,164.67 2026.32,164.67 2026.72,206.38 1934.64,205.99 1934.64,440.11 "/>
   <path class="fil2" d="M2136.5 444.05c-21.51,0 -42.04,-3.15 -61.58,-9.44 -19.54,-6.3 -35.08,-14.3 -46.63,-24l17.31 -38.17c11.02,8.92 24.59,16.26 40.73,22.04 16.13,5.77 32.85,8.66 50.17,8.66 14.69,0 26.56,-1.64 35.61,-4.92 9.05,-3.28 15.74,-7.74 20.07,-13.38 4.33,-5.64 6.5,-11.87 6.5,-18.69 0,-8.66 -3.02,-15.54 -9.05,-20.66 -6.04,-5.11 -13.84,-9.31 -23.41,-12.59 -9.57,-3.28 -20.26,-6.17 -32.07,-8.66 -11.8,-2.49 -23.54,-5.51 -35.22,-9.05 -11.67,-3.54 -22.36,-8.2 -32.07,-13.97 -9.71,-5.77 -17.51,-13.31 -23.41,-22.63 -5.9,-9.31 -8.85,-21.31 -8.85,-36 0,-14.95 3.93,-28.59 11.8,-40.92 7.87,-12.33 19.94,-22.23 36.2,-29.71 16.27,-7.48 36.86,-11.22 61.78,-11.22 16.26,0 32.53,2.1 48.79,6.3 16.26,4.2 30.43,10.23 42.5,18.1l-15.74 38.56c-12.33,-7.61 -24.99,-13.19 -37.97,-16.72 -12.98,-3.54 -25.64,-5.31 -37.97,-5.31 -14.43,0 -26.17,1.77 -35.22,5.31 -9.05,3.54 -15.67,8.2 -19.87,13.97 -4.2,5.77 -6.3,12.2 -6.3,19.28 0,8.66 3.02,15.54 9.05,20.66 6.04,5.11 13.91,9.24 23.61,12.39 9.7,3.15 20.4,6.03 32.07,8.66 11.67,2.62 23.35,5.64 35.02,9.05 11.67,3.41 22.36,7.94 32.07,13.58 9.71,5.64 17.58,13.11 23.61,22.43 6.04,9.31 9.05,21.18 9.05,35.61 0,14.69 -4,28.2 -12,40.53 -8,12.33 -20.2,22.23 -36.59,29.71 -16.4,7.48 -37.06,11.22 -61.98,11.22z"/>
  </g>
 </g>
</svg>
